<svg width="192" height="40" viewBox="0 0 192 40" fill="none" xmlns="http://www.w3.org/2000/svg">
<g clip-path="url(#clip0_2624_3251)">
<path d="M15.3616 22.9448C15.4659 22.957 15.5708 22.9634 15.6758 22.9639H21.5385C21.6422 22.9633 21.7458 22.9569 21.8489 22.9448C22.3703 22.8705 22.8504 22.6195 23.2089 22.2337C23.5674 21.848 23.7826 21.3508 23.8185 20.8253C23.8544 20.2999 23.7088 19.7781 23.4061 19.3471C23.1034 18.9161 22.6619 18.6022 22.1554 18.4577C22.0558 18.4309 21.9523 18.4156 21.8489 18.3926L21.5385 18.3734H15.6758C15.466 18.3724 15.2571 18.4008 15.0551 18.4577C14.8534 18.5152 14.6602 18.599 14.4803 18.7068C14.0762 18.9541 13.7584 19.3202 13.5702 19.755C13.3821 20.1898 13.3329 20.6721 13.4294 21.136C13.5258 21.5998 13.7632 22.0225 14.1091 22.3463C14.455 22.6701 14.8925 22.8791 15.3616 22.9448Z" fill="#FF9305"/>
<path d="M1.98103 4.57134C2.08448 4.57134 2.18795 4.57134 2.2914 4.59433H8.15403C8.25749 4.59433 8.36478 4.59433 8.46824 4.57134C8.67577 4.54405 8.87834 4.48728 9.06983 4.40274C9.50385 4.21287 9.86862 3.89356 10.1143 3.48848C10.3599 3.0834 10.4744 2.61233 10.4421 2.13969C10.4098 1.66706 10.2323 1.21594 9.93385 0.848035C9.6354 0.480127 9.2306 0.213396 8.77478 0.0843206C8.67516 0.0574981 8.5717 0.0421717 8.46824 0.019181H8.15403H2.2914C2.08284 0.0183944 1.87519 0.0467663 1.67449 0.103478C1.47282 0.160977 1.27958 0.244716 1.09972 0.352544C0.695601 0.599821 0.377743 0.965908 0.189624 1.40073C0.00150429 1.83555 -0.0476923 2.31786 0.0487674 2.78171C0.145227 3.24556 0.38263 3.66827 0.728503 3.99205C1.07438 4.31582 1.51183 4.52483 1.98103 4.5905V4.57134Z" fill="#FF9305"/>
<path d="M7.12328 18.4577C7.02365 18.4309 6.92019 18.4156 6.81673 18.3926L6.50636 18.3734H3.33747C3.12763 18.3724 2.91868 18.4008 2.71672 18.4577C2.51506 18.5152 2.32181 18.599 2.14196 18.7068C1.73784 18.9541 1.41998 19.3202 1.23186 19.755C1.04374 20.1898 0.994544 20.6721 1.091 21.136C1.18746 21.5998 1.42487 22.0225 1.77074 22.3463C2.11661 22.6701 2.55407 22.8791 3.02326 22.9448C3.12756 22.957 3.23246 22.9634 3.33747 22.9639H6.50636C6.61009 22.9633 6.71371 22.9569 6.81673 22.9448C7.02512 22.9157 7.22872 22.859 7.42215 22.7762C7.8561 22.5859 8.22068 22.2663 8.46603 21.861C8.71137 21.4557 8.82549 20.9844 8.79278 20.5117C8.76006 20.0391 8.58211 19.5881 8.28327 19.2204C7.98442 18.8527 7.57929 18.5864 7.12328 18.4577Z" fill="#FF9305"/>
<path d="M18.5803 35.4938C18.4795 35.4662 18.3771 35.4444 18.2738 35.4286L17.9596 35.4056H14.7907C14.5807 35.4065 14.3719 35.4362 14.17 35.4938C13.9683 35.548 13.7759 35.6319 13.599 35.7428C13.2035 35.993 12.8938 36.358 12.7112 36.7889C12.5286 37.2198 12.4819 37.6962 12.5773 38.1544C12.6727 38.6125 12.9056 39.0307 13.245 39.3529C13.5844 39.6752 14.014 39.8862 14.4765 39.9578C14.5838 39.9578 14.6872 39.9578 14.7907 39.9808H17.9596C18.063 39.9808 18.1703 39.9808 18.2738 39.9578C18.4813 39.9305 18.6839 39.8737 18.8754 39.7892C19.308 39.5986 19.6714 39.2793 19.916 38.8747C20.1607 38.4702 20.2746 38 20.2423 37.5283C20.2101 37.0567 20.0332 36.6064 19.7358 36.2389C19.4384 35.8714 19.0349 35.6045 18.5803 35.4746V35.4938Z" fill="#FF9305"/>
<path d="M74.306 10.8516C74.306 10.8324 74.306 10.8132 74.306 10.7941C74.306 10.7749 74.306 10.6791 74.306 10.6255C74.2515 10.2694 74.0928 9.93741 73.85 9.67137C73.7616 9.57308 73.6597 9.48792 73.5473 9.41847L73.463 9.361L73.4323 9.34184L57.6415 0.218362C57.5611 0.180044 57.4806 0.134061 57.4001 0.103407C57.2335 0.0373206 57.0578 -0.00274219 56.879 -0.0153776H17.9672C17.7574 -0.0157316 17.5486 0.0126319 17.3465 0.0689221C17.146 0.126443 16.9541 0.21019 16.7755 0.317989C16.3714 0.565265 16.0536 0.93135 15.8654 1.36617C15.6773 1.80099 15.6281 2.28331 15.7246 2.74715C15.821 3.211 16.0585 3.63372 16.4043 3.95749C16.7502 4.28126 17.1877 4.49028 17.6568 4.55594C17.7603 4.55594 17.8638 4.55594 17.9672 4.57893H28.6349L29.0181 4.61342C29.0947 4.61342 29.1752 4.64024 29.2518 4.66323C29.7076 4.79231 30.1125 5.05904 30.4109 5.42695C30.7093 5.79485 30.8868 6.24597 30.9191 6.71861C30.9514 7.19124 30.8369 7.66231 30.5913 8.06739C30.3457 8.47247 29.9809 8.79178 29.5469 8.98165C29.3542 9.06273 29.1521 9.11937 28.9453 9.15025C28.8418 9.15025 28.7345 9.15025 28.6311 9.16941H2.29139C2.08265 9.16992 1.87501 9.19958 1.67448 9.25754C1.47164 9.31174 1.27795 9.39567 1.09971 9.50661C0.697037 9.75444 0.380567 10.1204 0.193424 10.5546C0.00628184 10.9888 -0.0424321 11.4702 0.0539186 11.9331C0.150269 12.396 0.387002 12.8179 0.731854 13.1414C1.07671 13.4649 1.5129 13.6741 1.98101 13.7407C2.08447 13.7407 2.18793 13.7407 2.29139 13.7637H34.0032L34.3864 13.7982L34.6202 13.848C35.076 13.9771 35.4808 14.2438 35.7792 14.6117C36.0777 14.9796 36.2552 15.4308 36.2875 15.9034C36.3198 16.376 36.2053 16.8471 35.9596 17.2522C35.714 17.6573 35.3492 17.9766 34.9152 18.1664C34.7237 18.251 34.5211 18.3078 34.3136 18.335C34.2102 18.335 34.1029 18.335 33.9994 18.358H29.3093C29.0995 18.357 28.8905 18.3854 28.6886 18.4423C28.4869 18.4998 28.2936 18.5836 28.1138 18.6914C27.7097 18.9387 27.3918 19.3048 27.2037 19.7396C27.0156 20.1744 26.9664 20.6567 27.0628 21.1206C27.1593 21.5844 27.3967 22.0071 27.7426 22.3309C28.0884 22.6547 28.5259 22.8637 28.9951 22.9294C29.0994 22.9416 29.2043 22.948 29.3093 22.9485H40.9349C41.4248 22.9485 41.8946 22.7539 42.2409 22.4076C42.5873 22.0612 42.7819 21.5914 42.7819 21.1016V14.5876C42.7814 14.5264 42.7972 14.4663 42.8277 14.4133C42.8581 14.3603 42.9021 14.3163 42.9551 14.2859C43.0082 14.2555 43.0683 14.2398 43.1294 14.2402C43.1906 14.2407 43.2504 14.2574 43.303 14.2887L51.4225 18.9941C52.4982 19.6151 53.3909 20.509 54.0106 21.5855C54.6302 22.662 54.9548 23.8829 54.9516 25.125V29.2326C54.952 29.8292 54.7953 30.4154 54.4973 30.9323C54.1993 31.4491 53.7706 31.8785 53.2541 32.1771C52.7376 32.4757 52.1516 32.6331 51.555 32.6335C50.9584 32.6339 50.3722 32.4772 49.8553 32.1793L43.1727 28.313C43.0595 28.2485 42.9611 28.1609 42.8839 28.056C42.8067 27.951 42.7523 27.831 42.7244 27.7038C42.6386 27.288 42.4116 26.9147 42.082 26.6472C41.7523 26.3797 41.3403 26.2345 40.9158 26.2362H11.8517C11.6419 26.2358 11.433 26.2642 11.2309 26.3205C11.0305 26.378 10.8385 26.4617 10.66 26.5695C10.256 26.8166 9.93807 27.1823 9.74976 27.6169C9.56145 28.0514 9.51192 28.5335 9.60794 28.9972C9.70396 29.4609 9.94084 29.8837 10.2862 30.2077C10.6316 30.5318 11.0686 30.7412 11.5375 30.8075C11.6409 30.8075 11.7482 30.8075 11.8517 30.8305H31.4589L31.8421 30.865C31.9188 30.865 31.9992 30.8918 32.0759 30.9148C32.5317 31.0439 32.9365 31.3106 33.2349 31.6785C33.5334 32.0464 33.7109 32.4975 33.7432 32.9702C33.7755 33.4428 33.661 33.9139 33.4153 34.3189C33.1697 34.724 32.8049 35.0433 32.3709 35.2332C32.1782 35.3143 31.9761 35.3709 31.7693 35.4018C31.6659 35.4018 31.5586 35.4018 31.4551 35.421H25.6691C25.4604 35.4215 25.2527 35.4511 25.0522 35.5091C24.8494 35.5633 24.6557 35.6472 24.4774 35.7582C24.0819 36.0086 23.7722 36.3739 23.5898 36.8051C23.4074 37.2363 23.3611 37.7129 23.4569 38.1712C23.5527 38.6295 23.7862 39.0475 24.126 39.3696C24.4659 39.6916 24.896 39.9021 25.3587 39.9731C25.4622 39.9731 25.5657 39.9731 25.6691 39.9961H56.8982L57.0399 39.977C57.1708 39.9571 57.2992 39.9237 57.4231 39.8773L57.5496 39.816H57.5687C57.7041 39.7575 57.8326 39.6842 57.9519 39.5976L73.4323 30.6619C73.5051 30.6121 73.5817 30.5661 73.6507 30.5125C73.9311 30.286 74.1389 29.9822 74.2485 29.6388C74.3007 29.4674 74.3265 29.2891 74.3251 29.11V10.8516H74.306ZM57.3541 4.20342L68.4663 10.6217C68.5132 10.649 68.5522 10.6881 68.5792 10.7352C68.6063 10.7822 68.6205 10.8356 68.6205 10.8899C68.6205 10.9442 68.6063 10.9975 68.5792 11.0446C68.5522 11.0916 68.5132 11.1308 68.4663 11.1581L66.286 12.4188C66.1024 12.5243 65.8943 12.5799 65.6825 12.5799C65.4707 12.5799 65.2626 12.5243 65.079 12.4188L54.0167 6.03118C53.9633 6.00067 53.919 5.95661 53.8881 5.90345C53.8573 5.85029 53.841 5.78993 53.841 5.72847C53.841 5.66701 53.8573 5.60664 53.8881 5.55348C53.919 5.50032 53.9633 5.45626 54.0167 5.42576L56.1318 4.20342C56.318 4.09725 56.5286 4.04141 56.743 4.04141C56.9573 4.04141 57.1679 4.09725 57.3541 4.20342ZM56.1318 17.5802L45.0694 11.1926C45.017 11.1613 44.9737 11.117 44.9435 11.0639C44.9134 11.0109 44.8976 10.9509 44.8976 10.8899C44.8976 10.8289 44.9134 10.7689 44.9435 10.7158C44.9737 10.6628 45.017 10.6184 45.0694 10.5872L47.1884 9.36866C47.3735 9.26134 47.5837 9.20482 47.7977 9.20482C48.0116 9.20482 48.2218 9.26134 48.4069 9.36866L59.5191 15.7831C59.566 15.8109 59.6048 15.8504 59.6317 15.8978C59.6587 15.9452 59.6728 15.9987 59.6728 16.0532C59.6728 16.1077 59.6587 16.1613 59.6317 16.2086C59.6048 16.256 59.566 16.2955 59.5191 16.3234L57.335 17.5802C57.1518 17.685 56.9444 17.7402 56.7334 17.7402C56.5223 17.7402 56.315 17.685 56.1318 17.5802ZM70.7194 27.5926C70.7194 27.7379 70.6811 27.8806 70.6085 28.0063C70.5358 28.1321 70.4314 28.2366 70.3056 28.3092L59.772 34.3941C59.6463 34.4657 59.504 34.5032 59.3593 34.5027C59.2146 34.5023 59.0725 34.4639 58.9473 34.3914C58.8221 34.3189 58.718 34.2148 58.6456 34.0895C58.5731 33.9643 58.5348 33.8222 58.5343 33.6775V21.5078C58.5339 21.3629 58.572 21.2206 58.6447 21.0953C58.7174 20.9701 58.8222 20.8664 58.9482 20.795L61.7875 19.155C61.7875 21.2664 61.7875 24.2743 61.7875 25.7802C61.7883 25.8758 61.814 25.9696 61.8623 26.0522C61.9105 26.1348 61.9795 26.2033 62.0624 26.2509C62.1453 26.2986 62.2392 26.3237 62.3349 26.3238C62.4305 26.3239 62.5245 26.299 62.6075 26.2515L67.0294 23.734C67.1643 23.6566 67.2764 23.545 67.3544 23.4105C67.4325 23.2759 67.4737 23.1232 67.4739 22.9677V15.8712L69.4856 14.7217C69.6113 14.65 69.7536 14.6125 69.8983 14.613C70.043 14.6135 70.185 14.6519 70.3103 14.7244C70.4355 14.7969 70.5395 14.9009 70.612 15.0262C70.6845 15.1514 70.7228 15.2935 70.7232 15.4382L70.7194 27.5926Z" fill="#7366FF"/>
</g>
<path d="M81.2286 17.6667C80.6994 17.6667 80.1779 17.5954 79.6641 17.453C79.1504 17.3105 78.699 17.1126 78.3098 16.8594L78.8586 14.7936C79.2322 15.0548 79.6369 15.2725 80.0728 15.4466C80.5087 15.6128 80.9251 15.6959 81.322 15.6959C81.8824 15.6959 82.1627 15.5099 82.1627 15.1379C82.1627 15.0113 82.1237 14.9084 82.0459 14.8292C81.9681 14.7422 81.8396 14.6591 81.6606 14.5799C81.4894 14.5008 81.1936 14.382 80.7733 14.2237C80.0027 13.9309 79.4306 13.5945 79.057 13.2146C78.6912 12.8268 78.5083 12.3084 78.5083 11.6594C78.5083 11.1132 78.6367 10.6423 78.8936 10.2466C79.1504 9.84292 79.5085 9.53425 79.9677 9.32055C80.4269 9.10685 80.9601 9 81.5672 9C82.042 9 82.5207 9.06332 83.0033 9.18995C83.4936 9.30868 83.8828 9.4551 84.1708 9.62922L83.5287 11.4932C83.2484 11.3349 82.9293 11.2082 82.5713 11.1132C82.2132 11.0103 81.8941 10.9589 81.6139 10.9589C81.3571 10.9589 81.1508 11.0024 80.9951 11.0895C80.8395 11.1686 80.7616 11.2834 80.7616 11.4338C80.7616 11.6158 80.8706 11.7702 81.0885 11.8968C81.3065 12.0155 81.6956 12.1738 82.2561 12.3717C82.7542 12.5537 83.155 12.7437 83.4586 12.9416C83.7699 13.1315 84.0073 13.3808 84.1708 13.6895C84.342 13.9903 84.4277 14.3741 84.4277 14.8411C84.4277 15.7275 84.1436 16.4201 83.5754 16.9187C83.0072 17.4174 82.2249 17.6667 81.2286 17.6667Z" fill="#7366FF"/>
<path d="M92.0487 17.6667C91.3326 17.6667 90.7099 17.5361 90.1806 17.2749C89.6514 17.0137 89.2388 16.6377 88.9431 16.147C88.6551 15.6484 88.5111 15.0548 88.5111 14.3662V9.11872H90.7294V14.1288C90.7294 14.5957 90.8461 14.9479 91.0796 15.1854C91.3209 15.4228 91.6478 15.5416 92.0604 15.5416C92.4729 15.5416 92.7959 15.4228 93.0294 15.1854C93.2707 14.9479 93.3913 14.5957 93.3913 14.1288V9.11872H95.5863V14.3662C95.5863 15.0548 95.4384 15.6484 95.1426 16.147C94.8546 16.6377 94.446 17.0137 93.9167 17.2749C93.3874 17.5361 92.7648 17.6667 92.0487 17.6667Z" fill="#7366FF"/>
<path d="M103.401 9.11872C104.016 9.11872 104.541 9.24931 104.977 9.5105C105.413 9.76377 105.74 10.1041 105.958 10.5315C106.183 10.951 106.296 11.4021 106.296 11.8849C106.296 12.3756 106.183 12.8426 105.958 13.2858C105.74 13.7212 105.409 14.0773 104.965 14.3543C104.529 14.6234 104.008 14.758 103.401 14.758H102.303V17.5479H100.085V9.11872H103.401ZM102.864 12.9416C103.206 12.9416 103.475 12.8545 103.669 12.6804C103.864 12.4983 103.961 12.2332 103.961 11.8849C103.961 11.5683 103.864 11.3309 103.669 11.1726C103.483 11.0143 103.214 10.9352 102.864 10.9352H102.303V12.9416H102.864Z" fill="#7366FF"/>
<path d="M113.605 9.11872C114.22 9.11872 114.746 9.24931 115.181 9.5105C115.617 9.76377 115.944 10.1041 116.162 10.5315C116.388 10.951 116.501 11.4021 116.501 11.8849C116.501 12.3756 116.388 12.8426 116.162 13.2858C115.944 13.7212 115.613 14.0773 115.17 14.3543C114.734 14.6234 114.212 14.758 113.605 14.758H112.508V17.5479H110.29V9.11872H113.605ZM113.068 12.9416C113.411 12.9416 113.679 12.8545 113.874 12.6804C114.068 12.4983 114.166 12.2332 114.166 11.8849C114.166 11.5683 114.068 11.3309 113.874 11.1726C113.687 11.0143 113.419 10.9352 113.068 10.9352H112.508V12.9416H113.068Z" fill="#7366FF"/>
<path d="M125.736 15.5416V17.5479H120.494V9.11872H122.712V15.5416H125.736Z" fill="#7366FF"/>
<path d="M132.318 14.3543V17.5479H130.146V14.3543L127.461 9.11872H129.889L131.372 12.2411L132.855 9.11872H135.003L132.318 14.3543Z" fill="#7366FF"/>
<path d="M147.583 17.6667C146.735 17.6667 145.98 17.4886 145.318 17.1324C144.664 16.7763 144.154 16.2737 143.789 15.6247C143.431 14.9677 143.252 14.2158 143.252 13.3689C143.252 12.4983 143.438 11.7346 143.812 11.0776C144.193 10.4128 144.719 9.90228 145.388 9.54612C146.065 9.18204 146.828 9 147.676 9C148.61 9 149.506 9.23349 150.362 9.70046L149.65 11.7068C149.323 11.5169 149.011 11.3705 148.716 11.2676C148.42 11.1568 148.105 11.1014 147.77 11.1014C147.108 11.1014 146.575 11.3072 146.17 11.7187C145.773 12.1224 145.575 12.6566 145.575 13.3215C145.575 13.9705 145.77 14.5087 146.159 14.9361C146.548 15.3556 147.085 15.5653 147.77 15.5653C148.455 15.5653 149.159 15.3397 149.883 14.8886L150.49 16.8356C150.093 17.1047 149.661 17.3105 149.194 17.453C148.727 17.5954 148.19 17.6667 147.583 17.6667Z" fill="#7366FF"/>
<path d="M161.609 9.11872V17.5479H159.39V14.3068H156.507V17.5479H154.288V9.11872H156.507V12.3598H159.39V9.11872H161.609Z" fill="#7366FF"/>
<path d="M170.828 15.5059H168.317L167.664 17.5479H165.434L168.411 9.11872H170.851L173.828 17.5479H171.481L170.828 15.5059ZM170.267 13.7489L169.567 11.5525L168.866 13.7489H170.267Z" fill="#7366FF"/>
<path d="M177.662 9.11872H179.88V17.5479H177.662V9.11872Z" fill="#7366FF"/>
<path d="M191.976 9.11872V17.5479H189.84L186.536 12.5854V17.5479H184.434V9.11872H186.583L189.875 14.0932V9.11872H191.976Z" fill="#7366FF"/>
<path d="M82.4806 31C81.6637 31 80.9367 30.8014 80.2997 30.4042C79.6701 30.0069 79.1792 29.4463 78.8269 28.7224C78.4822 27.9897 78.3098 27.151 78.3098 26.2064C78.3098 25.2354 78.4897 24.3835 78.8494 23.6507C79.2167 22.9092 79.7226 22.3398 80.3671 21.9425C81.0191 21.5364 81.7536 21.3334 82.5705 21.3334C83.4699 21.3334 84.3318 21.5938 85.1562 22.1147L84.4704 24.3526C84.1557 24.1407 83.8559 23.9774 83.5711 23.8626C83.2863 23.739 82.9827 23.6772 82.6605 23.6772C82.0234 23.6772 81.51 23.9067 81.1203 24.3658C80.7381 24.816 80.547 25.4119 80.547 26.1535C80.547 26.8774 80.7343 27.4777 81.1091 27.9544C81.4838 28.4223 82.0009 28.6562 82.6605 28.6562C83.32 28.6562 83.9983 28.4046 84.6953 27.9014L85.2799 30.0731C84.8976 30.3733 84.4817 30.6028 84.032 30.7617C83.5823 30.9206 83.0652 31 82.4806 31Z" fill="#7366FF"/>
<path d="M92.5594 31C91.765 31 91.0492 30.8014 90.4122 30.4042C89.7751 30.0069 89.273 29.4463 88.9058 28.7224C88.546 27.9897 88.3661 27.1378 88.3661 26.1667C88.3661 25.1956 88.546 24.3481 88.9058 23.6242C89.273 22.8915 89.7751 22.3265 90.4122 21.9293C91.0567 21.532 91.78 21.3334 92.5819 21.3334C93.3838 21.3334 94.1033 21.532 94.7404 21.9293C95.3849 22.3265 95.8871 22.8871 96.2468 23.611C96.614 24.3349 96.7977 25.1736 96.7977 26.127C96.7977 27.0804 96.614 27.9279 96.2468 28.6694C95.8871 29.411 95.3849 29.9848 94.7404 30.3909C94.0958 30.797 93.3688 31 92.5594 31ZM92.5819 28.6297C93.174 28.6297 93.6499 28.4046 94.0096 27.9544C94.3769 27.4953 94.5605 26.8994 94.5605 26.1667C94.5605 25.434 94.3769 24.8425 94.0096 24.3923C93.6499 23.9332 93.174 23.7037 92.5819 23.7037C91.9898 23.7037 91.5102 23.9332 91.1429 24.3923C90.7832 24.8425 90.6033 25.434 90.6033 26.1667C90.6033 26.8994 90.7832 27.4953 91.1429 27.9544C91.5102 28.4046 91.9898 28.6297 92.5819 28.6297Z" fill="#7366FF"/>
<path d="M107.968 21.4658V30.8676H105.911L102.73 25.3325V30.8676H100.706V21.4658H102.775L105.945 27.0142V21.4658H107.968Z" fill="#7366FF"/>
<path d="M119.617 21.4658V30.8676H117.559L114.378 25.3325V30.8676H112.354V21.4658H114.423L117.593 27.0142V21.4658H119.617Z" fill="#7366FF"/>
<path d="M124.003 21.4658H129.151V23.6507H126.139V25.1206H129.061V27.2261H126.139V28.6827H129.253V30.8676H124.003V21.4658Z" fill="#7366FF"/>
<path d="M137.033 31C136.216 31 135.489 30.8014 134.852 30.4042C134.222 30.0069 133.732 29.4463 133.379 28.7224C133.035 27.9897 132.862 27.151 132.862 26.2064C132.862 25.2354 133.042 24.3835 133.402 23.6507C133.769 22.9092 134.275 22.3398 134.919 21.9425C135.571 21.5364 136.306 21.3334 137.123 21.3334C138.022 21.3334 138.884 21.5938 139.709 22.1147L139.023 24.3526C138.708 24.1407 138.408 23.9774 138.123 23.8626C137.839 23.739 137.535 23.6772 137.213 23.6772C136.576 23.6772 136.062 23.9067 135.673 24.3658C135.29 24.816 135.099 25.4119 135.099 26.1535C135.099 26.8774 135.287 27.4777 135.661 27.9544C136.036 28.4223 136.553 28.6562 137.213 28.6562C137.872 28.6562 138.551 28.4046 139.248 27.9014L139.832 30.0731C139.45 30.3733 139.034 30.6028 138.584 30.7617C138.135 30.9206 137.618 31 137.033 31Z" fill="#7366FF"/>
<path d="M148.987 23.6375H146.997V30.8676H144.861V23.6375H142.871V21.4658H148.987V23.6375Z" fill="#7366FF"/>
<path d="M152.755 21.4658H154.891V30.8676H152.755V21.4658Z" fill="#7366FF"/>
<path d="M166.314 21.4658L163.537 30.8676H161.199L158.422 21.4658H160.738L162.379 27.9676L164.021 21.4658H166.314Z" fill="#7366FF"/>
<path d="M169.849 21.4658H171.985V30.8676H169.849V21.4658Z" fill="#7366FF"/>
<path d="M181.867 23.6375H179.878V30.8676H177.742V23.6375H175.752V21.4658H181.867V23.6375Z" fill="#7366FF"/>
<path d="M189.391 27.3055V30.8676H187.3V27.3055L184.714 21.4658H187.052L188.48 24.9484L189.908 21.4658H191.976L189.391 27.3055Z" fill="#7366FF"/>
<defs>
<clipPath id="clip0_2624_3251">
<rect width="74.3098" height="40" fill="white"/>
</clipPath>
</defs>
</svg>
